<?xml version="1.0" encoding="utf-8"?>
<!-- Generator: Adobe Illustrator 18.0.0, SVG Export Plug-In . SVG Version: 6.00 Build 0)  -->
<!DOCTYPE svg PUBLIC "-//W3C//DTD SVG 1.1//EN" "http://www.w3.org/Graphics/SVG/1.1/DTD/svg11.dtd">
<svg version="1.1" id="Layer_1" xmlns="http://www.w3.org/2000/svg" xmlns:xlink="http://www.w3.org/1999/xlink" x="0px" y="0px"
	 viewBox="0 0 75 75" enable-background="new 0 0 75 75" xml:space="preserve">
<path d="M60,75H15C6.7,75,0,68.3,0,60V15C0,6.7,6.7,0,15,0h45c8.3,0,15,6.7,15,15v45C75,68.3,68.3,75,60,75z"/>
<path fill="#FFFFFF" d="M56.3,37.5c-0.4-0.4-0.6-0.8-0.7-1.3c-0.1-0.9-0.1-1.7-0.2-2.5c0-0.5,0.2-1,0.1-1.4
	c-0.3-1.1-0.4-2.3-0.4-3.4c-0.1-2.5-0.3-5-0.5-7.5c0-0.6,0.1-1.1-0.2-1.7c-0.2,0.1,0,0.4-0.3,0.5c0-0.2,0-0.4,0-0.6
	c-0.1-0.1,0-0.3-0.2-0.4c0,0.1,0,0.2-0.1,0.3c0,0,0,0,0,0c0,0-0.1,0-0.1,0c0,0,0,0,0,0c0,0,0,0,0,0c0-0.1-0.1-0.2-0.1-0.3
	c0,0,0-0.1-0.1-0.1c0,0-0.1,0.1-0.1,0.1c-0.2,0.3-0.1,0.6-0.1,0.9c-0.1,0.8-0.1,1.5-0.2,2.3c0,0,0,0.1,0,0.1C53,22.7,53,23,53,23.3
	c-0.1,1-0.3,2-0.4,3c0,0,0,0.1,0,0.1c-0.1,0.8-0.3,1.5-0.4,2.3c-0.3,0.8-0.4,1.6-0.6,2.4c-0.3,0.8-0.5,1.7-1,2.5
	c0,0-0.1,0.1-0.1,0.1c-0.3,0-0.6-0.1-0.9-0.1v0c-0.2-0.3-0.6-0.3-0.9-0.5c0,0,0,0,0,0c0,0,0,0,0,0c0.4-0.7-0.3-1.2-0.3-1.8
	c-0.1-1-0.5-1.9-0.5-3c0-0.2-0.1-0.5-0.3-0.6c0-0.2-0.1-0.5-0.1-0.7c0-1.4-0.2-2.7-0.4-4c-0.2-1.3-0.2-2.5-0.3-3.8
	c-0.3-2.3-0.3-4.5-0.5-6.8c0-0.2,0.1-0.6-0.4-0.6c0,0,0,0,0,0c0,0,0,0,0,0c0,0,0-0.1,0-0.1c0,0,0,0,0,0c0-0.3-0.1-0.6-0.3-0.8
	c-0.2-0.2-0.5-0.3-0.6,0.2c0,0.4,0,0.9,0,1.3c-0.2,1-0.2,2-0.3,3c0,0.2,0,0.3,0,0.5c-0.2,0.4-0.1,0.9-0.1,1.4c0,0.3,0,0.6,0,0.9
	c0,0.2-0.1,0.5-0.1,0.7c-0.1,0.7-0.1,1.4-0.2,2.1c0,0.1,0,0.2,0,0.2c-0.1,0.3-0.1,0.6-0.1,0.9c0,0.1,0,0.2,0,0.3
	c-0.1,0.3-0.1,0.6-0.1,0.9c-0.2,0.6-0.3,1.3-0.3,2c-0.1,0.2-0.1,0.5-0.1,0.8c-0.3,1.1-0.4,2.2-0.6,3.3c-0.1,0.1-0.1,0.3-0.1,0.5
	c0,0.2-0.1,0.4-0.1,0.6c-0.1,0.4-0.1,0.8-0.2,1.1c-0.1,0.3-0.2,0.4-0.6,0.4c-0.6-0.1-1.2-0.1-1.8-0.2c0,0,0-0.1,0-0.1
	c0.1-0.2,0.3-0.3,0.2-0.5c-0.1-0.6-0.3-1.2-0.2-1.8c-0.1-0.5,0.4-1,0-1.4c-0.3-0.3-0.3-0.6-0.2-0.9c0.1-0.4,0.1-0.8-0.4-1
	c-0.1-0.3,0.1-0.6-0.1-0.9c-0.2-1-0.2-1.9-0.3-2.9c-0.3-2.5-0.3-5-0.5-7.5c-0.1-1.2-0.2-2.4-0.2-3.6c0-0.3-0.1-0.6-0.3-0.8
	c0-1.3-0.1-2.7-0.1-4c0-0.3,0-0.6-0.4-0.6c-0.1,0.1-0.1,0.2-0.1,0.3c0-0.1-0.1-0.2-0.3-0.2c0-0.1,0-0.2-0.1-0.4c0-0.1,0-0.2,0-0.3
	c-0.1-0.1-0.1-0.2-0.3-0.2c0,0.1-0.1,0.1-0.1,0.2c-0.1,0.3,0,0.7-0.1,1c0,0.1,0,0.2,0,0.3c0,0,0,0,0,0c0,0.2,0,0.4,0,0.6
	c0,1.8-0.1,3.6-0.1,5.3c0,0.2,0,0.5,0,0.7c0,0,0,0,0,0c0,0,0,0,0,0c-0.2,0.5-0.2,1-0.1,1.4c0,0.1,0,0.3,0,0.4
	c-0.2,1.4-0.3,2.8-0.3,4.2c0,0,0,0,0,0c-0.1,0.5-0.1,1-0.1,1.5c-0.2,0.9-0.3,1.8-0.3,2.7c-0.4,2.4-0.8,4.8-1.2,7.2
	c-0.1,0.2-0.1,0.5-0.2,0.7c-0.1,0.1-0.1,0.3-0.1,0.4c-0.3,0.1-0.6,0.2-0.9,0.3c-0.2,0-0.4,0-0.6,0c-0.3,0-0.6,0-0.9,0
	c0.1-0.2,0.3-0.2,0.2-0.5c-0.3-1.1-0.4-2.2-0.6-3.2c-0.3-1.8-0.5-3.6-0.7-5.4c-0.2-1.6-0.2-3.3-0.5-4.9c-0.1-0.6,0.1-1.2-0.2-1.8
	c0.1-1.1-0.2-2.2-0.1-3.3c0-0.7-0.4-1.2-0.7-1.7c0,0-0.1,0-0.1,0c-0.3-0.1-0.5,0.1-0.4,0.4c0,0.1,0,0.3,0,0.4
	c-0.2,0.3-0.1,0.6-0.1,0.9c0,0.5,0,0.9,0,1.4c-0.2,0.6-0.1,1.3-0.1,1.9c0,0.1,0,0.1,0,0.2c-0.2,0.5-0.1,1.1-0.1,1.7
	c-0.1,0.5-0.2,0.9-0.2,1.4c-0.1,0.2-0.1,0.5-0.1,0.8c-0.1,0.5-0.1,1-0.2,1.5c0,0,0,0,0,0c-0.2,0.4-0.1,0.8-0.1,1.2c0,0,0,0.1,0,0.1
	c-0.2,0.4-0.1,0.8-0.1,1.2c0,0,0,0.1,0,0.1c-0.1,0.3-0.1,0.6-0.1,0.9c-0.2,0.7-0.3,1.4-0.3,2.1c-0.1,0.2-0.1,0.5-0.1,0.8
	c-0.4,1.6-0.8,3.2-1.2,4.8c-0.2,0.5-0.8,0.4-1.2,0.6c-0.4,0-0.5-0.5-0.8-0.6c0.2-0.3,0.3-0.6-0.1-0.9l0,0c0-0.3,0-0.6-0.3-0.7v0
	c0-0.5-0.1-1.1-0.4-1.6c0-1-0.5-2.1-0.4-3.1c0.1-0.6-0.1-1.3-0.2-1.9c-0.1-0.7,0.1-1.6-0.4-2.2c0-0.9-0.2-1.9-0.3-2.8
	c0-0.5-0.2-0.7-0.6-0.8c-0.1-0.3,0-0.7-0.5-0.6c-0.2,0-0.3,0.1-0.3,0.2c0,0.7-0.1,1.5-0.1,2.2c0,0.2,0,0.4,0,0.6l0,0
	C20,21.6,20,22,20,22.4c0,0.1,0,0.3,0,0.4c0,0.1,0,0.1,0,0.2c-0.2,0.3-0.1,0.7-0.1,1.1c0,0.2,0,0.4,0,0.5c0,0,0,0,0,0
	c-0.2,0.5-0.1,1-0.1,1.5c0,0,0,0.1,0,0.1c-0.1,0.5-0.1,1-0.1,1.5c0,0,0,0.1,0,0.1c-0.1,0.4-0.1,0.8-0.1,1.2
	c-0.1,1.3-0.2,2.6-0.3,3.8c0,0.1,0,0.1,0,0.2C19,33.4,19,33.7,19,34c0,0.2,0,0.4,0,0.7c-0.1,0.4-0.1,0.8-0.1,1.2c0,0.2,0,0.4,0,0.6
	l0,0c-0.1,0.4-0.3,0.9,0,1.3c0.1,0.1,0.3,0.2,0.4,0.3c-0.2,0.5,0.2,0.6,0.5,0.7c0.3,0.2,0.7,0.3,1,0.4c1,0.5,1.8,1.2,3,1.3
	c0.3,0.2,0.5,0.6,0.9,0.7l0,0l0,0c-0.2,0.7,0.4,0.2,0.6,0.4c-0.1,0.2-0.1,0.3,0.1,0.5c0.2,0.1,0.2-0.1,0.3-0.2l0,0
	c0.1,0.3,0,0.8,0.6,0.4c0.1,0.1,0.2,0.2,0.3,0.3c0,0.1-0.1,0.2,0,0.3c0.1,0.1,0.2,0,0.3,0c0.1,0.1,0.3,0.3,0.4,0.4
	c-0.2,0.3,0,0.7,0.1,0.7c0.7,0.4,1.1,1.1,1.5,1.7c0.2,0.3,0.3,0.1,0.5,0c0,0,0.1,0,0.1,0c0,0,0,0.1,0,0.1c-0.1,0.6,0.6,1.4,1.2,1.4
	c0.2,0.1,0.1,0.3,0.1,0.4c0,0.4,0.2,0.6,0.6,0.7c0.1,0.1,0.1,0.1,0.2,0.2c-0.2,0.4,0,0.6,0.4,0.7c0.1,0.2,0.3,0.4,0.4,0.6
	c0.2,0.4,0.3,0.8,0.6,1.1c0,0.5,0.4,0.9,0.6,1.4c0.1,0.2,0.2,0.5,0.3,0.7c0.7,1.7,1.2,3.4,1.7,5.2c0,0.2,0,0.4,0.1,0.6
	c0,0,0,0.1,0,0.1c0.1,0.7,0.3,1.4,0.4,2.2l0,0c0,0,0,0,0,0c0,0,0,0,0,0c0.1,1.1,0.2,2.1,0.4,3.2c0,0.1,0,0.3,0,0.4c0,0,0-0.1,0,0
	c0.1,0.8-0.1,2.1,0.1,2.1h0c0,1,0,1.4,0,2c0,0.3,0.1,0.6,0.4,0.8c0.1,0.3,0.2,0.4,0.5,0.3c0.2-0.1,0.4-0.3,0.4-0.6
	c0.3-1.2,0-2.4,0.3-3.6c0.1,0,0.2,0,0.2-0.1c0.1-2.6,0.7-5,1.2-7.5c0.2-0.9,0.6-1.8,0.6-2.8c0-0.2,0-0.3,0.1-0.4
	c0.1-0.1,0.3-0.2,0.3-0.2c0-0.9,0.7-1.6,0.8-2.5c0.2-0.4,0.5-0.9,0.7-1.3c0.2-0.6,0.9-1,0.8-1.7c0.3-0.7,0.8-1.3,1.1-2h0
	c0.6-0.7,1-1.6,1.8-2.2c0.2-0.1,0.1-0.2,0-0.4h0c0.6-0.5,1.1-1.1,1.7-1.6c0.2,0,0.4-0.2,0.5-0.3c0.6-0.4,1.1-1,1.8-1.3
	c0.6-0.5,1.5-0.6,2-1.3c0,0,0.1,0,0.1,0c0.4-0.2,0.9-0.3,1.1-0.7c0,0,0,0,0,0c0.4-0.2,0.9-0.4,1.3-0.6c0.6,0,1-0.2,1-0.9
	c0.2-0.3,0.6,0,0.7-0.3C56.3,37.7,56.3,37.6,56.3,37.5z M19.1,36.5C19.1,36.5,19.1,36.5,19.1,36.5C19.1,36.5,19.1,36.5,19.1,36.5
	C19.2,36.5,19.2,36.5,19.1,36.5L19.1,36.5z M19.3,33.8C19.3,33.8,19.3,33.8,19.3,33.8C19.3,33.8,19.3,33.8,19.3,33.8
	C19.3,33.8,19.3,33.8,19.3,33.8z M19.4,36.5C19.4,36.5,19.4,36.5,19.4,36.5C19.4,36.5,19.4,36.5,19.4,36.5
	C19.4,36.5,19.4,36.5,19.4,36.5z M19.7,35.3C19.7,35.3,19.7,35.3,19.7,35.3C19.7,35.3,19.7,35.3,19.7,35.3
	C19.7,35.3,19.7,35.3,19.7,35.3z M19.7,32.2C19.7,32.2,19.7,32.2,19.7,32.2C19.7,32.2,19.7,32.2,19.7,32.2
	C19.7,32.2,19.7,32.2,19.7,32.2C19.7,32.2,19.7,32.2,19.7,32.2C19.7,32.2,19.7,32.2,19.7,32.2C19.7,32.2,19.7,32.2,19.7,32.2z
	 M19.9,35.6C19.9,35.6,19.9,35.6,19.9,35.6L19.9,35.6C19.9,35.6,19.9,35.6,19.9,35.6C19.9,35.6,19.9,35.6,19.9,35.6
	C19.9,35.6,19.9,35.6,19.9,35.6z M20,25.9C20,25.9,20,25.9,20,25.9C20,25.9,20,25.9,20,25.9C20,25.9,20,25.9,20,25.9z M20,28.7
	C20,28.7,20,28.7,20,28.7C20,28.7,20,28.7,20,28.7C20,28.7,20,28.7,20,28.7C20,28.7,20,28.7,20,28.7z M20.3,21.4
	C20.3,21.4,20.3,21.4,20.3,21.4C20.3,21.4,20.3,21.4,20.3,21.4C20.3,21.4,20.3,21.4,20.3,21.4z M20.3,25.7L20.3,25.7
	C20.3,25.7,20.3,25.7,20.3,25.7C20.3,25.7,20.3,25.7,20.3,25.7C20.3,25.7,20.3,25.7,20.3,25.7z M20.7,23.1
	C20.7,23.1,20.7,23.1,20.7,23.1C20.7,23.1,20.7,23.1,20.7,23.1C20.7,23.1,20.7,23.1,20.7,23.1C20.7,23.1,20.7,23.1,20.7,23.1
	C20.7,23.1,20.7,23.1,20.7,23.1z M21,24.3C21,24.3,21,24.3,21,24.3C21,24.3,21,24.3,21,24.3C21,24.3,21,24.3,21,24.3
	C21,24.3,21,24.3,21,24.3C21,24.3,21,24.3,21,24.3z M21.2,33.9C21.2,33.9,21.2,33.9,21.2,33.9C21.1,33.9,21.1,33.9,21.2,33.9
	C21.1,33.9,21.1,33.9,21.2,33.9C21.2,33.9,21.2,33.9,21.2,33.9L21.2,33.9C21.2,33.9,21.2,33.9,21.2,33.9z M21.2,31
	C21.2,31,21.2,31,21.2,31C21.2,31,21.2,31,21.2,31L21.2,31L21.2,31C21.2,31,21.2,31,21.2,31C21.2,31,21.2,31,21.2,31z M21.3,30.6
	C21.3,30.6,21.3,30.6,21.3,30.6C21.3,30.6,21.3,30.6,21.3,30.6C21.3,30.6,21.3,30.6,21.3,30.6C21.3,30.6,21.3,30.6,21.3,30.6z
	 M21.3,26.3L21.3,26.3L21.3,26.3L21.3,26.3C21.3,26.3,21.3,26.3,21.3,26.3C21.3,26.3,21.3,26.3,21.3,26.3
	C21.3,26.3,21.3,26.3,21.3,26.3C21.3,26.3,21.3,26.3,21.3,26.3C21.3,26.3,21.3,26.3,21.3,26.3z M21.5,24.6
	C21.5,24.6,21.5,24.6,21.5,24.6C21.5,24.6,21.5,24.6,21.5,24.6C21.5,24.6,21.5,24.6,21.5,24.6z M21.6,31.1
	C21.6,31.1,21.6,31,21.6,31.1C21.6,31,21.6,31,21.6,31.1C21.6,31,21.6,31.1,21.6,31.1z M23.2,34.5C23.2,34.5,23.2,34.5,23.2,34.5
	C23.2,34.5,23.2,34.5,23.2,34.5C23.2,34.5,23.2,34.5,23.2,34.5C23.2,34.5,23.2,34.5,23.2,34.5C23.2,34.5,23.2,34.5,23.2,34.5z
	 M23.4,38.8L23.4,38.8C23.4,38.8,23.4,38.8,23.4,38.8L23.4,38.8C23.4,38.8,23.4,38.8,23.4,38.8C23.4,38.8,23.4,38.8,23.4,38.8
	C23.5,38.8,23.5,38.8,23.4,38.8C23.5,38.8,23.5,38.8,23.4,38.8z M23.6,39.3C23.6,39.3,23.6,39.2,23.6,39.3
	C23.6,39.2,23.6,39.2,23.6,39.3C23.6,39.2,23.6,39.2,23.6,39.3C23.6,39.2,23.6,39.2,23.6,39.3C23.6,39.2,23.6,39.3,23.6,39.3
	C23.6,39.3,23.6,39.3,23.6,39.3z M23.7,32.9C23.7,32.9,23.7,32.9,23.7,32.9L23.7,32.9C23.7,32.9,23.7,32.9,23.7,32.9z M23.8,37.5
	C23.8,37.5,23.8,37.5,23.8,37.5C23.8,37.5,23.8,37.5,23.8,37.5C23.8,37.5,23.8,37.5,23.8,37.5z M23.9,35.5
	C23.9,35.5,23.9,35.5,23.9,35.5C23.9,35.5,23.9,35.5,23.9,35.5C23.9,35.5,23.9,35.5,23.9,35.5C23.9,35.5,23.9,35.5,23.9,35.5
	C23.9,35.5,23.9,35.5,23.9,35.5z M23.9,33.9L23.9,33.9C23.9,33.9,23.9,33.9,23.9,33.9C23.9,33.9,23.9,33.9,23.9,33.9z M24.1,35.5
	C24,35.5,24,35.5,24.1,35.5L24.1,35.5L24.1,35.5C24,35.5,24,35.5,24.1,35.5C24,35.5,24,35.5,24.1,35.5
	C24.1,35.5,24.1,35.5,24.1,35.5z M24.5,37.1C24.5,37.1,24.5,37.1,24.5,37.1C24.5,37.1,24.5,37.1,24.5,37.1
	C24.5,37.1,24.5,37.1,24.5,37.1z M26.9,30.5C26.9,30.5,26.9,30.5,26.9,30.5C26.9,30.5,26.9,30.5,26.9,30.5
	C26.9,30.5,26.9,30.5,26.9,30.5z M26.9,42.2C26.9,42.2,26.9,42.2,26.9,42.2C26.9,42.2,26.9,42.2,26.9,42.2
	C26.9,42.2,26.9,42.2,26.9,42.2C26.9,42.2,26.9,42.2,26.9,42.2z M27.8,29.6L27.8,29.6C27.8,29.6,27.8,29.6,27.8,29.6
	C27.8,29.6,27.8,29.6,27.8,29.6C27.8,29.6,27.8,29.6,27.8,29.6z M27.9,24.4C27.9,24.4,27.9,24.4,27.9,24.4L27.9,24.4
	C27.9,24.4,27.9,24.4,27.9,24.4z M27.9,26.5C27.9,26.5,27.9,26.5,27.9,26.5C27.9,26.4,27.9,26.5,27.9,26.5
	C27.9,26.5,27.9,26.5,27.9,26.5z M28.2,26.6L28.2,26.6C28.2,26.6,28.2,26.6,28.2,26.6C28.2,26.6,28.2,26.6,28.2,26.6
	C28.2,26.6,28.2,26.6,28.2,26.6C28.2,26.6,28.2,26.6,28.2,26.6z M28.3,27.4C28.3,27.4,28.3,27.4,28.3,27.4
	C28.3,27.4,28.3,27.4,28.3,27.4C28.3,27.4,28.3,27.4,28.3,27.4C28.3,27.4,28.3,27.4,28.3,27.4L28.3,27.4
	C28.3,27.4,28.3,27.4,28.3,27.4z M28.3,22C28.3,22,28.3,22,28.3,22C28.3,22,28.3,22,28.3,22C28.3,22,28.3,22,28.3,22z M28.5,25.1
	C28.5,25.1,28.5,25.1,28.5,25.1C28.5,25.1,28.5,25.1,28.5,25.1C28.5,25.1,28.5,25.1,28.5,25.1C28.5,25.1,28.5,25.1,28.5,25.1
	C28.5,25.1,28.5,25.1,28.5,25.1z M28.6,20.7C28.6,20.7,28.6,20.7,28.6,20.7C28.6,20.7,28.7,20.7,28.6,20.7
	C28.7,20.7,28.6,20.7,28.6,20.7z M28.7,12.5C28.8,12.5,28.8,12.5,28.7,12.5C28.8,12.5,28.8,12.5,28.7,12.5
	C28.8,12.5,28.8,12.5,28.7,12.5z M29,29.1C29,29.1,29,29.1,29,29.1C29,29.1,29,29.1,29,29.1C29,29.1,29,29.1,29,29.1z M29,25.7
	L29,25.7C29,25.7,29,25.7,29,25.7C29,25.7,29,25.7,29,25.7C29,25.7,29,25.7,29,25.7z M29.2,22.6C29.2,22.6,29.2,22.6,29.2,22.6
	C29.2,22.6,29.2,22.6,29.2,22.6C29.2,22.6,29.2,22.6,29.2,22.6z M29.2,43.8C29.2,43.8,29.2,43.8,29.2,43.8
	C29.2,43.8,29.2,43.8,29.2,43.8C29.2,43.8,29.2,43.8,29.2,43.8z M29.3,35.3C29.3,35.3,29.3,35.3,29.3,35.3
	C29.3,35.3,29.3,35.3,29.3,35.3C29.3,35.3,29.3,35.3,29.3,35.3z M29.5,21C29.5,21,29.5,21,29.5,21C29.5,21,29.5,21,29.5,21
	C29.5,21,29.5,21,29.5,21C29.5,21,29.5,21,29.5,21C29.5,21,29.5,21,29.5,21z M29.8,40.4C29.8,40.3,29.8,40.3,29.8,40.4
	c0.1,0,0.1,0,0.1,0C29.9,40.4,29.8,40.4,29.8,40.4z M29.9,37.5C29.9,37.5,29.9,37.5,29.9,37.5C29.9,37.5,29.9,37.5,29.9,37.5
	L29.9,37.5C29.9,37.5,29.9,37.5,29.9,37.5z M30.5,33.5C30.5,33.5,30.5,33.5,30.5,33.5C30.5,33.5,30.5,33.5,30.5,33.5
	C30.5,33.5,30.5,33.5,30.5,33.5z M30.5,33.6L30.5,33.6L30.5,33.6C30.5,33.6,30.5,33.6,30.5,33.6C30.5,33.6,30.5,33.6,30.5,33.6
	C30.5,33.6,30.5,33.6,30.5,33.6C30.5,33.6,30.5,33.6,30.5,33.6C30.5,33.6,30.5,33.6,30.5,33.6C30.5,33.6,30.5,33.6,30.5,33.6z
	 M31.2,30.5L31.2,30.5C31.2,30.5,31.2,30.5,31.2,30.5C31.2,30.5,31.2,30.5,31.2,30.5C31.2,30.5,31.2,30.5,31.2,30.5z M31.7,32.4
	L31.7,32.4C31.7,32.4,31.7,32.4,31.7,32.4C31.7,32.4,31.7,32.4,31.7,32.4z M32.1,40.8C32.1,40.8,32.1,40.8,32.1,40.8
	C32.1,40.8,32.1,40.8,32.1,40.8C32.1,40.8,32.1,40.8,32.1,40.8z M32.2,48.1C32.2,48.1,32.2,48.1,32.2,48.1
	C32.2,48.1,32.2,48.1,32.2,48.1C32.2,48.1,32.2,48.1,32.2,48.1z M32.2,44.8C32.2,44.8,32.2,44.8,32.2,44.8
	C32.2,44.8,32.2,44.8,32.2,44.8C32.2,44.8,32.2,44.8,32.2,44.8z M32.5,47.4C32.5,47.4,32.5,47.4,32.5,47.4
	C32.5,47.4,32.5,47.4,32.5,47.4C32.5,47.4,32.5,47.4,32.5,47.4C32.5,47.4,32.5,47.4,32.5,47.4C32.5,47.4,32.5,47.4,32.5,47.4z
	 M33.1,34.9C33.1,34.9,33.1,34.9,33.1,34.9C33.1,34.9,33.1,34.9,33.1,34.9C33.1,34.9,33.1,34.9,33.1,34.9z M33.6,40.8
	C33.6,40.8,33.6,40.8,33.6,40.8C33.6,40.8,33.6,40.8,33.6,40.8C33.6,40.8,33.6,40.8,33.6,40.8z M33.7,47.1
	C33.7,47.1,33.7,47.1,33.7,47.1C33.7,47.1,33.7,47.2,33.7,47.1C33.7,47.2,33.7,47.1,33.7,47.1z M33.8,36.6
	C33.8,36.6,33.8,36.6,33.8,36.6C33.8,36.6,33.8,36.6,33.8,36.6L33.8,36.6C33.8,36.6,33.8,36.6,33.8,36.6z M34.1,47.7
	C34.1,47.7,34.1,47.7,34.1,47.7L34.1,47.7C34.1,47.7,34.1,47.7,34.1,47.7C34.1,47.7,34.1,47.7,34.1,47.7z M34.3,43.3
	c0-0.1,0-0.2,0-0.3c0.1,0,0.1,0,0.2,0.1C34.3,43.2,34.3,43.3,34.3,43.3z M34.5,51.7C34.5,51.7,34.5,51.7,34.5,51.7
	C34.5,51.7,34.5,51.7,34.5,51.7C34.5,51.7,34.5,51.7,34.5,51.7z M34.5,37.9C34.5,37.9,34.5,37.9,34.5,37.9
	C34.5,37.9,34.5,37.9,34.5,37.9C34.5,37.9,34.5,37.9,34.5,37.9z M35,53.5C35,53.5,35,53.5,35,53.5C35,53.5,35,53.5,35,53.5
	C35,53.5,35,53.5,35,53.5L35,53.5z M35.3,33.9C35.4,33.9,35.4,33.9,35.3,33.9C35.4,33.9,35.4,33.9,35.3,33.9
	C35.4,33.9,35.4,33.9,35.3,33.9z M35.5,55.7C35.5,55.7,35.5,55.7,35.5,55.7C35.5,55.7,35.5,55.7,35.5,55.7L35.5,55.7L35.5,55.7
	C35.5,55.7,35.5,55.7,35.5,55.7C35.5,55.7,35.5,55.7,35.5,55.7c0.1,0,0.1,0,0.1,0c0,0,0,0,0,0c0,0,0,0,0,0
	C35.6,55.7,35.6,55.7,35.5,55.7z M35.8,58.9C35.8,58.9,35.8,58.9,35.8,58.9C35.8,58.9,35.8,58.9,35.8,58.9
	C35.8,58.9,35.8,58.9,35.8,58.9z M36.1,35.6C36.1,35.6,36.1,35.6,36.1,35.6C36.1,35.6,36.1,35.6,36.1,35.6L36.1,35.6
	C36.1,35.6,36.1,35.6,36.1,35.6C36.1,35.6,36.1,35.6,36.1,35.6z M36.1,57.5L36.1,57.5C36.1,57.4,36.1,57.5,36.1,57.5
	C36.1,57.5,36.1,57.5,36.1,57.5C36.1,57.4,36.1,57.4,36.1,57.5C36.1,57.4,36.1,57.4,36.1,57.5C36.1,57.4,36.1,57.4,36.1,57.5z
	 M36.4,60.2C36.4,60.2,36.4,60.2,36.4,60.2L36.4,60.2C36.4,60.2,36.4,60.2,36.4,60.2C36.4,60.2,36.4,60.2,36.4,60.2z M36.8,57.9
	C36.8,57.9,36.8,57.9,36.8,57.9L36.8,57.9C36.8,57.9,36.8,57.9,36.8,57.9C36.8,57.9,36.8,57.9,36.8,57.9
	C36.8,57.9,36.8,57.9,36.8,57.9z M36.8,61.1C36.8,61.1,36.8,61.1,36.8,61.1C36.8,61.1,36.8,61.1,36.8,61.1
	C36.8,61.1,36.8,61.2,36.8,61.1C36.8,61.2,36.8,61.1,36.8,61.1z M36.9,9.8C36.9,9.8,36.9,9.8,36.9,9.8L36.9,9.8L36.9,9.8
	C36.9,9.8,36.9,9.8,36.9,9.8C36.9,9.8,36.9,9.8,36.9,9.8z M36.9,7.4C36.9,7.4,36.9,7.3,36.9,7.4C36.9,7.3,36.9,7.3,36.9,7.4
	C36.9,7.3,36.9,7.3,36.9,7.4z M37.1,40C37.1,39.9,37.1,39.9,37.1,40C37.1,39.9,37.1,39.9,37.1,40C37.1,39.9,37.1,39.9,37.1,40z
	 M37.1,59.7C37.1,59.7,37.1,59.7,37.1,59.7C37.1,59.7,37.1,59.7,37.1,59.7C37.1,59.7,37.1,59.7,37.1,59.7z M37.1,59.7L37.1,59.7
	L37.1,59.7C37.1,59.7,37.1,59.7,37.1,59.7z M37.1,59.7C37.1,59.7,37.1,59.7,37.1,59.7C37.1,59.7,37.1,59.7,37.1,59.7
	C37.1,59.7,37.1,59.7,37.1,59.7C37.1,59.7,37.1,59.7,37.1,59.7C37.1,59.7,37.1,59.7,37.1,59.7z M37.2,27.7
	C37.2,27.7,37.2,27.7,37.2,27.7C37.2,27.6,37.2,27.6,37.2,27.7C37.2,27.6,37.2,27.7,37.2,27.7z M37.2,54.4L37.2,54.4
	C37.2,54.4,37.2,54.4,37.2,54.4C37.2,54.4,37.2,54.4,37.2,54.4C37.2,54.4,37.2,54.4,37.2,54.4C37.2,54.4,37.2,54.4,37.2,54.4
	C37.2,54.4,37.2,54.4,37.2,54.4z M37.2,10.1C37.2,10.1,37.2,10.1,37.2,10.1L37.2,10.1C37.2,10.1,37.2,10.1,37.2,10.1
	C37.2,10.1,37.2,10.1,37.2,10.1z M37.4,46.8C37.4,46.8,37.4,46.8,37.4,46.8C37.4,46.8,37.4,46.8,37.4,46.8
	C37.4,46.8,37.4,46.8,37.4,46.8C37.4,46.8,37.4,46.8,37.4,46.8z M37.4,42.1C37.4,42.1,37.4,42.1,37.4,42.1
	C37.4,42.1,37.4,42.1,37.4,42.1C37.4,42.1,37.4,42.1,37.4,42.1z M37.4,54.4C37.4,54.4,37.4,54.4,37.4,54.4
	C37.4,54.4,37.4,54.4,37.4,54.4C37.4,54.4,37.4,54.4,37.4,54.4z M37.5,29.4C37.5,29.4,37.5,29.4,37.5,29.4
	C37.5,29.5,37.5,29.5,37.5,29.4C37.5,29.4,37.5,29.4,37.5,29.4C37.5,29.4,37.5,29.4,37.5,29.4z M37.5,54.4L37.5,54.4
	C37.5,54.4,37.5,54.4,37.5,54.4C37.5,54.4,37.5,54.4,37.5,54.4C37.5,54.4,37.5,54.4,37.5,54.4C37.5,54.4,37.5,54.4,37.5,54.4
	C37.5,54.4,37.5,54.4,37.5,54.4z M37.5,38.8C37.5,38.8,37.5,38.8,37.5,38.8C37.5,38.8,37.5,38.8,37.5,38.8
	C37.5,38.8,37.5,38.8,37.5,38.8z M37.5,36.1C37.5,36.1,37.5,36,37.5,36.1C37.5,36,37.5,36,37.5,36.1C37.5,36.1,37.5,36.1,37.5,36.1z
	 M37.5,11.4C37.5,11.4,37.5,11.4,37.5,11.4C37.5,11.4,37.5,11.3,37.5,11.4C37.5,11.4,37.5,11.4,37.5,11.4
	C37.5,11.4,37.5,11.4,37.5,11.4z M37.8,11.2C37.8,11.2,37.8,11.2,37.8,11.2C37.8,11.2,37.8,11.2,37.8,11.2
	C37.8,11.2,37.8,11.2,37.8,11.2C37.8,11.2,37.8,11.2,37.8,11.2C37.8,11.2,37.8,11.2,37.8,11.2z M37.7,60C37.7,60,37.7,60,37.7,60
	C37.7,60,37.7,60,37.7,60C37.7,60,37.7,60,37.7,60C37.7,60,37.7,60,37.7,60C37.7,60,37.7,60,37.7,60z M37.7,39
	C37.7,39,37.7,39,37.7,39L37.7,39C37.7,39,37.7,39,37.7,39z M37.8,10.1C37.7,10.1,37.7,10.1,37.8,10.1L37.8,10.1
	C37.7,10.1,37.7,10.1,37.8,10.1C37.7,10.1,37.7,10.1,37.8,10.1L37.8,10.1z M37.9,25.8C37.8,25.8,37.8,25.7,37.9,25.8L37.9,25.8
	C37.8,25.7,37.8,25.7,37.9,25.8C37.8,25.7,37.8,25.7,37.9,25.8C37.8,25.7,37.8,25.7,37.9,25.8C37.8,25.7,37.8,25.8,37.9,25.8
	C37.9,25.8,37.9,25.8,37.9,25.8z M37.9,53.3C37.9,53.3,37.9,53.3,37.9,53.3C37.9,53.3,37.9,53.3,37.9,53.3
	C37.9,53.3,37.9,53.3,37.9,53.3z M38.1,12.1L38.1,12.1C38.1,12.1,38.1,12,38.1,12.1C38.1,12,38.1,12,38.1,12.1
	C38.1,12.1,38.1,12.1,38.1,12.1z M38.2,55.4C38.2,55.4,38.2,55.4,38.2,55.4C38.2,55.4,38.2,55.4,38.2,55.4
	C38.2,55.4,38.2,55.4,38.2,55.4z M38.2,41.7C38.2,41.7,38.2,41.6,38.2,41.7C38.2,41.6,38.2,41.6,38.2,41.7
	C38.2,41.7,38.2,41.7,38.2,41.7z M38.2,14.7C38.2,14.7,38.2,14.7,38.2,14.7C38.3,14.7,38.3,14.7,38.2,14.7
	C38.3,14.7,38.3,14.7,38.2,14.7z M38.4,19.6C38.4,19.5,38.4,19.5,38.4,19.6C38.4,19.5,38.4,19.5,38.4,19.6
	C38.4,19.5,38.4,19.5,38.4,19.6z M38.5,36.5C38.5,36.5,38.5,36.5,38.5,36.5C38.5,36.5,38.5,36.5,38.5,36.5
	C38.5,36.5,38.5,36.5,38.5,36.5C38.5,36.5,38.5,36.5,38.5,36.5z M38.5,26.6C38.5,26.6,38.5,26.6,38.5,26.6
	C38.5,26.6,38.5,26.6,38.5,26.6C38.5,26.6,38.5,26.6,38.5,26.6C38.5,26.6,38.5,26.6,38.5,26.6C38.5,26.6,38.5,26.6,38.5,26.6z
	 M39,41.1C39,41.1,39,41.1,39,41.1C38.9,41.1,38.9,41.1,39,41.1C39,41.1,39,41.1,39,41.1z M38.8,42.2C38.8,42.2,38.8,42.2,38.8,42.2
	C38.8,42.2,38.8,42.2,38.8,42.2C38.8,42.2,38.8,42.2,38.8,42.2z M38.8,31.7C38.8,31.7,38.8,31.7,38.8,31.7
	C38.8,31.7,38.8,31.7,38.8,31.7C38.8,31.7,38.8,31.7,38.8,31.7z M38.9,51.8C38.9,51.8,38.9,51.8,38.9,51.8
	C38.9,51.8,38.9,51.7,38.9,51.8C38.9,51.7,38.9,51.7,38.9,51.8C38.9,51.7,38.9,51.7,38.9,51.8L38.9,51.8L38.9,51.8
	C38.9,51.7,39,51.7,38.9,51.8C38.9,51.7,38.9,51.8,38.9,51.8z M39.1,36.3C39.1,36.3,39.1,36.3,39.1,36.3
	C39.1,36.3,39.1,36.3,39.1,36.3C39.1,36.3,39.1,36.3,39.1,36.3z M39.1,47.2C39.1,47.2,39.1,47.2,39.1,47.2
	C39.1,47.2,39.1,47.2,39.1,47.2C39.1,47.2,39.1,47.2,39.1,47.2z M39.1,41.9C39.1,41.9,39.1,41.9,39.1,41.9
	C39.1,41.9,39.1,41.9,39.1,41.9C39.1,41.9,39.1,41.9,39.1,41.9z M39.2,49.7C39.2,49.7,39.2,49.7,39.2,49.7
	C39.2,49.7,39.2,49.7,39.2,49.7C39.2,49.7,39.2,49.7,39.2,49.7C39.2,49.7,39.2,49.7,39.2,49.7L39.2,49.7L39.2,49.7z M39.2,44.7
	C39.2,44.7,39.2,44.6,39.2,44.7C39.2,44.6,39.3,44.7,39.2,44.7C39.3,44.7,39.2,44.7,39.2,44.7z M39.4,31.4
	C39.4,31.5,39.4,31.5,39.4,31.4L39.4,31.4C39.4,31.5,39.4,31.5,39.4,31.4C39.4,31.5,39.4,31.5,39.4,31.4
	C39.4,31.5,39.3,31.4,39.4,31.4C39.4,31.4,39.4,31.4,39.4,31.4z M39.4,42.7C39.4,42.7,39.4,42.7,39.4,42.7c0.1,0,0.1,0.1,0.1,0.1
	C39.4,42.8,39.4,42.7,39.4,42.7z M39.5,35.6C39.5,35.6,39.5,35.6,39.5,35.6C39.5,35.6,39.5,35.6,39.5,35.6
	C39.5,35.6,39.5,35.6,39.5,35.6L39.5,35.6C39.5,35.6,39.5,35.6,39.5,35.6C39.5,35.6,39.5,35.6,39.5,35.6z M39.8,39.8
	C39.8,39.8,39.8,39.8,39.8,39.8C39.8,39.8,39.8,39.8,39.8,39.8C39.8,39.8,39.8,39.8,39.8,39.8z M39.9,39.3
	C39.9,39.3,39.9,39.3,39.9,39.3L39.9,39.3C39.9,39.3,39.9,39.3,39.9,39.3C39.9,39.3,39.9,39.3,39.9,39.3z M40.1,42.2L40.1,42.2
	C40.1,42.2,40.1,42.2,40.1,42.2C40.1,42.2,40.1,42.2,40.1,42.2C40.1,42.2,40.1,42.2,40.1,42.2z M40.2,50.8
	C40.2,50.8,40.2,50.8,40.2,50.8C40.2,50.8,40.2,50.8,40.2,50.8C40.2,50.8,40.2,50.8,40.2,50.8z M40.7,39.5
	C40.7,39.5,40.7,39.5,40.7,39.5C40.7,39.5,40.7,39.5,40.7,39.5C40.7,39.5,40.7,39.5,40.7,39.5L40.7,39.5L40.7,39.5z M40.4,38.5
	C40.4,38.5,40.4,38.5,40.4,38.5C40.4,38.5,40.4,38.5,40.4,38.5C40.4,38.5,40.4,38.5,40.4,38.5C40.4,38.5,40.4,38.5,40.4,38.5z
	 M40.4,50.8C40.4,50.8,40.4,50.8,40.4,50.8C40.4,50.8,40.4,50.8,40.4,50.8C40.4,50.8,40.4,50.8,40.4,50.8
	C40.4,50.8,40.4,50.8,40.4,50.8C40.4,50.8,40.4,50.8,40.4,50.8z M40.4,52.1C40.4,52.1,40.4,52.1,40.4,52.1
	C40.4,52.1,40.4,52.1,40.4,52.1C40.4,52.1,40.4,52.1,40.4,52.1z M40.5,47.8C40.5,47.8,40.5,47.8,40.5,47.8
	C40.5,47.8,40.5,47.8,40.5,47.8C40.5,47.8,40.5,47.8,40.5,47.8z M40.5,35.2C40.5,35.2,40.5,35.2,40.5,35.2
	C40.5,35.2,40.5,35.2,40.5,35.2C40.5,35.2,40.5,35.2,40.5,35.2z M40.7,44.8C40.7,44.8,40.7,44.8,40.7,44.8L40.7,44.8
	C40.7,44.8,40.7,44.8,40.7,44.8C40.7,44.8,40.7,44.8,40.7,44.8C40.7,44.8,40.7,44.8,40.7,44.8C40.7,44.8,40.7,44.8,40.7,44.8z
	 M40.8,33.3C40.8,33.3,40.8,33.3,40.8,33.3C40.8,33.3,40.8,33.3,40.8,33.3C40.8,33.3,40.8,33.3,40.8,33.3
	C40.8,33.2,40.8,33.2,40.8,33.3C40.8,33.3,40.8,33.3,40.8,33.3C40.8,33.3,40.8,33.3,40.8,33.3z M41.1,43.5
	C41.1,43.5,41.1,43.5,41.1,43.5C41.1,43.5,41.1,43.5,41.1,43.5C41.1,43.5,41.1,43.5,41.1,43.5z M41.2,40.4
	C41.2,40.4,41.2,40.4,41.2,40.4C41.2,40.4,41.2,40.4,41.2,40.4C41.2,40.4,41.2,40.4,41.2,40.4z M41.4,47.8
	C41.4,47.8,41.4,47.8,41.4,47.8L41.4,47.8C41.4,47.8,41.4,47.8,41.4,47.8C41.4,47.8,41.4,47.8,41.4,47.8z M41.4,36.9
	C41.4,36.9,41.4,36.9,41.4,36.9C41.4,36.9,41.4,36.9,41.4,36.9C41.5,36.9,41.5,36.9,41.4,36.9C41.4,36.9,41.4,36.9,41.4,36.9z
	 M42,46.8C42,46.8,42,46.8,42,46.8C42,46.8,42,46.8,42,46.8C42,46.8,42,46.8,42,46.8C42,46.8,42,46.8,42,46.8
	C42,46.8,42,46.8,42,46.8z M42.2,45.8C42.2,45.8,42.2,45.8,42.2,45.8C42.2,45.8,42.2,45.8,42.2,45.8C42.2,45.8,42.3,45.8,42.2,45.8
	C42.3,45.8,42.3,45.8,42.2,45.8C42.3,45.8,42.3,45.8,42.2,45.8C42.2,45.8,42.2,45.8,42.2,45.8z M42.7,34.6
	C42.7,34.6,42.7,34.6,42.7,34.6C42.7,34.6,42.7,34.6,42.7,34.6C42.7,34.6,42.7,34.6,42.7,34.6z M43.2,37.7
	C43.2,37.7,43.2,37.6,43.2,37.7C43.2,37.6,43.2,37.6,43.2,37.7C43.2,37.7,43.2,37.7,43.2,37.7z M43.3,41.9
	C43.3,41.9,43.3,41.9,43.3,41.9C43.3,41.9,43.3,41.9,43.3,41.9C43.3,41.9,43.3,41.9,43.3,41.9z M43.4,35.6
	C43.4,35.6,43.4,35.6,43.4,35.6C43.4,35.6,43.4,35.6,43.4,35.6C43.4,35.6,43.4,35.6,43.4,35.6z M43.5,45.1
	C43.5,45.1,43.5,45.1,43.5,45.1C43.5,45.1,43.5,45.1,43.5,45.1C43.5,45.1,43.5,45.1,43.5,45.1z M43.6,36.1
	C43.6,36.1,43.7,36.1,43.6,36.1C43.7,36.1,43.7,36.2,43.6,36.1C43.7,36.2,43.7,36.1,43.6,36.1z M43.7,29.6
	C43.7,29.6,43.7,29.6,43.7,29.6C43.7,29.6,43.7,29.6,43.7,29.6C43.7,29.6,43.7,29.6,43.7,29.6z M44.1,42.8
	C44.1,42.8,44.1,42.8,44.1,42.8C44.1,42.8,44.1,42.8,44.1,42.8C44.1,42.8,44.1,42.8,44.1,42.8z M44.3,32.5
	C44.3,32.5,44.2,32.5,44.3,32.5C44.2,32.5,44.2,32.5,44.3,32.5C44.2,32.5,44.3,32.5,44.3,32.5C44.3,32.5,44.3,32.5,44.3,32.5z
	 M44.4,32.9C44.4,32.9,44.4,32.9,44.4,32.9C44.4,32.9,44.4,32.9,44.4,32.9C44.4,32.9,44.4,32.9,44.4,32.9z M44.7,22.6
	C44.7,22.6,44.7,22.6,44.7,22.6C44.7,22.6,44.7,22.6,44.7,22.6C44.7,22.6,44.7,22.6,44.7,22.6z M44.7,22.4
	C44.7,22.4,44.7,22.4,44.7,22.4C44.7,22.4,44.7,22.4,44.7,22.4C44.7,22.4,44.7,22.4,44.7,22.4L44.7,22.4z M44.8,34.1
	C44.8,34,44.8,34,44.8,34.1C44.8,34,44.8,34,44.8,34.1C44.8,34.1,44.8,34.1,44.8,34.1z M44.8,27C44.8,27,44.8,27,44.8,27
	C44.8,27,44.8,27,44.8,27C44.8,27,44.8,27,44.8,27z M45,23.1C45,23.1,45,23.1,45,23.1C45,23.1,45,23.1,45,23.1
	C45,23.1,45,23.1,45,23.1z M45,27.3C45,27.3,45,27.3,45,27.3C45,27.3,45,27.3,45,27.3C45,27.3,45,27.3,45,27.3z M44.9,26.1
	C44.9,26.1,44.9,26.1,44.9,26.1C44.9,26.1,44.9,26.1,44.9,26.1C44.9,26.1,44.9,26.1,44.9,26.1z M45,44C45,44,45,44,45,44L45,44
	C45,44,45,44,45,44C45,44,45,44,45,44z M45.1,23.1C45.1,23.1,45.1,23.1,45.1,23.1C45.1,23.1,45.1,23.1,45.1,23.1
	C45.1,23.1,45.1,23.1,45.1,23.1z M45.4,13.5C45.4,13.5,45.4,13.5,45.4,13.5C45.4,13.5,45.4,13.5,45.4,13.5
	C45.4,13.5,45.4,13.5,45.4,13.5z M45.7,43.8C45.7,43.8,45.7,43.8,45.7,43.8C45.7,43.8,45.7,43.8,45.7,43.8
	C45.7,43.8,45.7,43.8,45.7,43.8z M46.1,27.6C46.1,27.6,46.1,27.6,46.1,27.6C46.1,27.6,46.1,27.5,46.1,27.6
	C46.1,27.5,46.1,27.6,46.1,27.6z M46.4,26.8C46.4,26.7,46.4,26.7,46.4,26.8C46.4,26.7,46.4,26.7,46.4,26.8
	C46.4,26.8,46.4,26.7,46.4,26.8z M46.5,26.8C46.5,26.8,46.5,26.8,46.5,26.8C46.5,26.8,46.5,26.8,46.5,26.8
	C46.5,26.8,46.5,26.8,46.5,26.8z M46.5,29L46.5,29C46.6,29,46.6,29,46.5,29L46.5,29C46.6,29,46.6,29,46.5,29
	C46.5,29,46.5,29,46.5,29z M46.6,38.8C46.6,38.8,46.6,38.8,46.6,38.8C46.6,38.8,46.6,38.8,46.6,38.8C46.6,38.8,46.6,38.8,46.6,38.8z
	 M47.1,34.5L47.1,34.5C47.1,34.5,47.1,34.5,47.1,34.5C47.1,34.5,47.1,34.5,47.1,34.5C47.1,34.5,47.1,34.5,47.1,34.5z M47.3,38.3
	C47.3,38.3,47.3,38.3,47.3,38.3C47.3,38.3,47.3,38.3,47.3,38.3C47.3,38.3,47.3,38.3,47.3,38.3z M47.4,30.5
	C47.4,30.5,47.4,30.4,47.4,30.5C47.4,30.4,47.4,30.4,47.4,30.5C47.4,30.4,47.4,30.5,47.4,30.5z M49.4,35.3
	C49.4,35.3,49.4,35.3,49.4,35.3C49.4,35.3,49.4,35.3,49.4,35.3C49.4,35.3,49.4,35.3,49.4,35.3C49.4,35.3,49.4,35.3,49.4,35.3
	C49.4,35.3,49.4,35.3,49.4,35.3C49.4,35.3,49.4,35.3,49.4,35.3z M49.9,38.8C49.9,38.8,49.9,38.8,49.9,38.8
	C49.9,38.7,49.9,38.7,49.9,38.8C50,38.7,50,38.7,49.9,38.8C49.9,38.7,49.9,38.7,49.9,38.8z M50.2,39.7
	C50.2,39.7,50.2,39.7,50.2,39.7C50.2,39.7,50.2,39.7,50.2,39.7C50.2,39.7,50.2,39.7,50.2,39.7C50.2,39.7,50.2,39.7,50.2,39.7
	C50.2,39.7,50.2,39.7,50.2,39.7C50.2,39.7,50.2,39.7,50.2,39.7z M50.6,39.2C50.6,39.2,50.6,39.2,50.6,39.2L50.6,39.2L50.6,39.2
	C50.6,39.2,50.6,39.2,50.6,39.2C50.6,39.2,50.6,39.2,50.6,39.2z M51.3,35.9C51.3,35.9,51.3,35.9,51.3,35.9
	C51.3,35.9,51.3,35.9,51.3,35.9C51.3,35.9,51.3,35.9,51.3,35.9z M52.3,37.9C52.3,37.9,52.3,37.9,52.3,37.9
	C52.3,37.9,52.3,37.9,52.3,37.9L52.3,37.9C52.3,37.9,52.3,37.9,52.3,37.9z M52.4,36.8C52.4,36.8,52.4,36.8,52.4,36.8
	C52.4,36.8,52.4,36.8,52.4,36.8L52.4,36.8C52.4,36.8,52.4,36.8,52.4,36.8z M52.4,35C52.4,35,52.4,34.9,52.4,35
	C52.4,34.9,52.4,34.9,52.4,35C52.4,35,52.4,35,52.4,35z M52.9,29.9L52.9,29.9L52.9,29.9C52.9,29.9,52.9,29.9,52.9,29.9
	C52.9,29.9,52.9,29.9,52.9,29.9C52.9,29.9,52.9,29.9,52.9,29.9z M53.3,36.6L53.3,36.6L53.3,36.6L53.3,36.6
	C53.3,36.6,53.3,36.6,53.3,36.6C53.3,36.6,53.3,36.6,53.3,36.6C53.3,36.6,53.3,36.6,53.3,36.6C53.3,36.6,53.3,36.6,53.3,36.6
	C53.3,36.6,53.3,36.6,53.3,36.6z M53.6,27.9C53.6,27.9,53.6,27.9,53.6,27.9C53.6,27.9,53.6,27.9,53.6,27.9
	C53.6,27.9,53.6,27.9,53.6,27.9z M53.6,27.9C53.6,27.9,53.6,27.9,53.6,27.9C53.6,27.9,53.6,27.9,53.6,27.9
	C53.6,27.9,53.6,27.9,53.6,27.9z M53.6,20.8C53.6,20.8,53.6,20.8,53.6,20.8C53.6,20.8,53.6,20.8,53.6,20.8
	C53.6,20.9,53.6,20.9,53.6,20.8z M53.7,31.3C53.7,31.3,53.7,31.3,53.7,31.3C53.7,31.3,53.7,31.3,53.7,31.3
	C53.7,31.3,53.7,31.3,53.7,31.3z M54,24C54,24,54,24,54,24C54,24,54,24,54,24C54,24,54,24,54,24z M54,28.9C54,28.9,54,28.9,54,28.9
	C54,28.9,54,28.9,54,28.9C54,28.9,54,28.9,54,28.9C54,28.9,54,28.9,54,28.9L54,28.9z M54,30.9C54,30.9,54,30.9,54,30.9
	C54,30.9,54,30.9,54,30.9C54,30.9,54,30.9,54,30.9z M54,36.9C54,36.9,54,36.9,54,36.9C54,36.9,54,36.9,54,36.9
	C54,36.9,54,36.9,54,36.9z M54,31.6C54,31.6,54,31.6,54,31.6L54,31.6L54,31.6C54,31.6,54,31.6,54,31.6C54,31.5,54,31.5,54,31.6
	C54,31.6,54,31.6,54,31.6C54,31.6,54,31.6,54,31.6C54,31.6,54,31.6,54,31.6C54,31.6,54.1,31.6,54,31.6C54.1,31.6,54,31.6,54,31.6z
	 M54,24.3C54,24.3,54,24.3,54,24.3C54,24.3,54,24.3,54,24.3C54,24.3,54,24.3,54,24.3c0,0,0.1,0,0.1,0C54.1,24.3,54.1,24.3,54,24.3z
	 M54.2,31.6C54.2,31.6,54.2,31.6,54.2,31.6C54.2,31.6,54.2,31.6,54.2,31.6C54.2,31.6,54.2,31.6,54.2,31.6z M55.3,37.9
	C55.3,37.9,55.3,37.9,55.3,37.9C55.3,37.9,55.3,37.9,55.3,37.9C55.3,37.9,55.3,37.9,55.3,37.9C55.3,37.9,55.3,37.9,55.3,37.9z"/>
<path d="M18.9,37.8c0,0,18.3,6,17.8,31.4c-0.1,4.8-2.5,2.3-3.5,2.2C28.6,70.9,18.9,37.8,18.9,37.8z"/>
<path d="M56.7,36.9c0,0-19.2,7-18.7,32.4c0.1,4.8,3.1,2.2,4.1,2.1C46.6,70.9,56.7,36.9,56.7,36.9z"/>
<ellipse cx="24.9" cy="19.4" rx="3.1" ry="14.2"/>
<ellipse cx="32.9" cy="16.8" rx="3.1" ry="16.8"/>
<ellipse cx="49.8" cy="18.3" rx="3.2" ry="16.3"/>
<rect x="37.1" y="30.3" fill="#FFFFFF" width="4.7" height="3.9"/>
<ellipse cx="41.8" cy="16.3" rx="3.2" ry="16.3"/>
<polygon fill="#FFFFFF" points="20.3,18.5 21,14.1 21.6,19.6 "/>
<polygon fill="#FFFFFF" points="28.5,12.4 29.2,7.1 29.9,12.4 "/>
<polygon fill="#FFFFFF" points="45.1,11.1 46,7.1 46.4,12.4 "/>
<polygon fill="#FFFFFF" points="36.7,6.1 37.2,1.1 38.1,6 "/>
<polygon fill="#FFFFFF" points="53.3,19.5 54,15.1 54.6,20.6 "/>
<path fill="#FFFFFF" d="M99.8,61.4L99.8,61.4c-0.7,0-1.2-0.6-1.2-1.2v-19c0-0.7,0.6-1.2,1.2-1.2l0,0c0.7,0,1.2,0.6,1.2,1.2v19
	C101.1,60.8,100.5,61.4,99.8,61.4z"/>
</svg>
